<svg width="106" height="106" viewBox="0 0 106 106" fill="none" xmlns="http://www.w3.org/2000/svg">
<g clip-path="url(#clip0_192_311)">
<path fill-rule="evenodd" clip-rule="evenodd" d="M33.9715 0L72.0285 0C83.8411 0 88.1247 1.22994 92.4432 3.53951C96.7617 5.84908 100.151 9.23828 102.46 13.5568C104.77 17.8753 106 22.1589 106 33.9715V72.0285C106 83.8411 104.77 88.1247 102.46 92.4432C100.151 96.7617 96.7617 100.151 92.4432 102.46C88.1247 104.77 83.8411 106 72.0285 106H33.9715C22.1589 106 17.8753 104.77 13.5568 102.46C9.23828 100.151 5.84908 96.7617 3.53951 92.4432C1.22994 88.1247 0 83.8411 0 72.0285L0 33.9715C0 22.1589 1.22994 17.8753 3.53951 13.5568C5.84908 9.23828 9.23828 5.84908 13.5568 3.53951C17.8753 1.22994 22.1589 0 33.9715 0Z" fill="#03A07A" fill-opacity="0.2"/>
<path d="M68.2131 30.9167H39.5865C38.4572 30.9167 37.5417 31.8436 37.5417 32.987V34.3672C37.5417 35.5106 38.4572 36.4375 39.5865 36.4375C39.5865 44.2844 43.933 50.9068 49.882 53C43.933 55.0933 39.5865 61.7156 39.5865 69.5625C38.4572 69.5625 37.5417 70.4894 37.5417 71.6328V73.013C37.5417 74.1565 38.4572 75.0834 39.5865 75.0834H68.2131C69.3424 75.0834 70.2578 74.1565 70.2578 73.013V71.6328C70.2578 70.4894 69.3424 69.5625 68.2131 69.5625C68.2131 61.7156 63.8666 55.0933 57.9175 53C63.8666 50.9068 68.2131 44.2844 68.2131 36.4375C69.3424 36.4375 70.2578 35.5106 70.2578 34.3672V32.987C70.2578 31.8436 69.3424 30.9167 68.2131 30.9167ZM61.8166 64.0417H45.9832C47.4366 60.0048 50.4217 57.1406 53.8998 57.1406C57.3776 57.1406 60.3631 60.0042 61.8166 64.0417ZM61.8182 41.9584H45.983C45.3789 40.2804 45.0392 38.3998 45.0392 36.4375H62.7604C62.7604 38.4047 62.4207 40.2837 61.8182 41.9584Z" fill="#03A07A"/>
</g>
<defs>
<clipPath id="clip0_192_311">
<rect width="106" height="106" fill="white"/>
</clipPath>
</defs>
</svg>
