<svg width="106" height="106" viewBox="0 0 106 106" fill="none" xmlns="http://www.w3.org/2000/svg">
<g clip-path="url(#clip0_192_304)">
<path fill-rule="evenodd" clip-rule="evenodd" d="M33.9715 0L72.0285 0C83.8411 0 88.1247 1.22994 92.4432 3.53951C96.7617 5.84908 100.151 9.23828 102.46 13.5568C104.77 17.8753 106 22.1589 106 33.9715V72.0285C106 83.8411 104.77 88.1247 102.46 92.4432C100.151 96.7617 96.7617 100.151 92.4432 102.46C88.1247 104.77 83.8411 106 72.0285 106H33.9715C22.1589 106 17.8753 104.77 13.5568 102.46C9.23828 100.151 5.84908 96.7617 3.53951 92.4432C1.22994 88.1247 0 83.8411 0 72.0285L0 33.9715C0 22.1589 1.22994 17.8753 3.53951 13.5568C5.84908 9.23828 9.23828 5.84908 13.5568 3.53951C17.8753 1.22994 22.1589 0 33.9715 0Z" fill="#03A07A" fill-opacity="0.2"/>
<path d="M48.8607 41.8277H73.7033C74.4623 41.8277 75.0834 41.2013 75.0834 40.4357V36.9554C75.0834 36.1898 74.4623 35.5633 73.7033 35.5633H48.8607C48.1017 35.5633 47.4806 36.1898 47.4806 36.9554V40.4357C47.4806 41.2013 48.1017 41.8277 48.8607 41.8277ZM48.8607 55.7487H73.7033C74.4623 55.7487 75.0834 55.1222 75.0834 54.3566V50.8763C75.0834 50.1107 74.4623 49.4843 73.7033 49.4843H48.8607C48.1017 49.4843 47.4806 50.1107 47.4806 50.8763V54.3566C47.4806 55.1222 48.1017 55.7487 48.8607 55.7487ZM48.8607 69.6696H73.7033C74.4623 69.6696 75.0834 69.0431 75.0834 68.2775V64.7973C75.0834 64.0316 74.4623 63.4052 73.7033 63.4052H48.8607C48.1017 63.4052 47.4806 64.0316 47.4806 64.7973V68.2775C47.4806 69.0431 48.1017 69.6696 48.8607 69.6696ZM36.4395 62.3611C34.1536 62.3611 32.2473 64.2317 32.2473 66.5374C32.2473 68.843 34.1536 70.7137 36.4395 70.7137C38.7253 70.7137 40.5799 68.843 40.5799 66.5374C40.5799 64.2317 38.7253 62.3611 36.4395 62.3611ZM44.4184 36.3464L38.1905 42.6282L36.8449 43.9855C36.4395 44.3944 35.7321 44.3944 35.3267 43.9855L31.2208 39.8614C30.8154 39.4525 30.8154 38.7912 31.2208 38.3823L32.5751 37.0163C32.9805 36.6074 33.6361 36.6074 34.0415 37.0163L35.9995 38.9392L41.4942 33.4317C41.8997 33.0228 42.5552 33.0228 42.9606 33.4317L44.427 34.8673C44.8238 35.2762 44.8238 35.9375 44.4184 36.3464ZM44.4184 50.2325L38.1905 56.5143L36.8363 57.8803C36.4308 58.2892 35.7235 58.2892 35.3181 57.8803L31.2208 53.7475C30.8154 53.3386 30.8154 52.6774 31.2208 52.2684L32.5751 50.9024C32.9805 50.4935 33.6361 50.4935 34.0415 50.9024L35.9995 52.8253L41.4942 47.283C41.8997 46.8741 42.5552 46.8741 42.9606 47.283L44.427 48.7621C44.8238 49.1623 44.8238 49.8236 44.4184 50.2325Z" fill="#03A07A"/>
</g>
<defs>
<clipPath id="clip0_192_304">
<rect width="106" height="106" fill="white"/>
</clipPath>
</defs>
</svg>
