<svg width="22" height="22" viewBox="0 0 22 22" fill="none" xmlns="http://www.w3.org/2000/svg">
<path d="M12 8C12.4596 8 12.9148 7.90947 13.3394 7.73358C13.764 7.55769 14.1499 7.29988 14.4749 6.97487C14.7999 6.64987 15.0577 6.26403 15.2336 5.83939C15.4095 5.41475 15.5 4.95963 15.5 4.5C15.5 4.04037 15.4095 3.58525 15.2336 3.16061C15.0577 2.73597 14.7999 2.35013 14.4749 2.02513C14.1499 1.70012 13.764 1.44231 13.3394 1.26642C12.9148 1.09053 12.4596 1 12 1C11.0717 1 10.1815 1.36875 9.52513 2.02513C8.86875 2.6815 8.5 3.57174 8.5 4.5C8.5 5.42826 8.86875 6.3185 9.52513 6.97487C10.1815 7.63125 11.0717 8 12 8ZM3 18.4V19H21V18.4C21 16.16 21 15.04 20.564 14.184C20.1805 13.4314 19.5686 12.8195 18.816 12.436C17.96 12 16.84 12 14.6 12H9.4C7.16 12 6.04 12 5.184 12.436C4.43139 12.8195 3.81949 13.4314 3.436 14.184C3 15.04 3 16.16 3 18.4Z" fill="black" stroke="black" stroke-width="2" stroke-linecap="round" stroke-linejoin="round"/>
</svg>
