<svg width="106" height="106" viewBox="0 0 106 106" fill="none" xmlns="http://www.w3.org/2000/svg">
<g clip-path="url(#clip0_192_296)">
<path fill-rule="evenodd" clip-rule="evenodd" d="M33.9715 0L72.0285 0C83.8411 0 88.1247 1.22994 92.4432 3.53951C96.7617 5.84908 100.151 9.23828 102.46 13.5568C104.77 17.8753 106 22.1589 106 33.9715V72.0285C106 83.8411 104.77 88.1247 102.46 92.4432C100.151 96.7617 96.7617 100.151 92.4432 102.46C88.1247 104.77 83.8411 106 72.0285 106H33.9715C22.1589 106 17.8753 104.77 13.5568 102.46C9.23828 100.151 5.84908 96.7617 3.53951 92.4432C1.22994 88.1247 0 83.8411 0 72.0285L0 33.9715C0 22.1589 1.22994 17.8753 3.53951 13.5568C5.84908 9.23828 9.23828 5.84908 13.5568 3.53951C17.8753 1.22994 22.1589 0 33.9715 0Z" fill="#03A07A" fill-opacity="0.2"/>
<path d="M40.3594 51.9688L51.9685 40.3614L48.1626 36.5556L42.842 41.8762C42.5755 42.1432 42.143 42.1436 41.8759 41.8771C41.8756 41.8768 41.8753 41.8765 41.875 41.8762L40.908 40.9092C40.6406 40.6418 40.6406 40.2088 40.908 39.9422L46.2286 34.6216L43.3268 31.7189C42.258 30.6501 40.5259 30.6501 39.4571 31.7189L31.7186 39.4574C30.6506 40.5262 30.6498 42.2583 31.7186 43.3271L40.3594 51.9688H40.3594ZM73.8695 41.8934C75.4878 40.2752 75.4869 37.652 73.8695 36.0337L69.9661 32.1304C68.3479 30.5121 65.7238 30.5121 64.1047 32.1304L60.1349 36.0993L69.8997 45.8641L73.8695 41.8934ZM58.1828 38.0522L32.5631 63.6684L30.9448 72.9363C30.7265 74.1863 31.8152 75.2749 33.066 75.0549L42.3348 73.4297L67.9476 47.8162L58.1828 38.0522ZM74.2818 62.6738L71.38 59.772L66.0594 65.0926C65.7919 65.36 65.3589 65.36 65.0924 65.0926L64.1254 64.1256C63.8588 63.8582 63.8588 63.4251 64.1254 63.1586L69.446 57.838L65.6384 54.0304L54.0293 65.6377L62.6736 74.2811C63.7424 75.3499 65.4745 75.3499 66.5433 74.2811L74.2818 66.5435C75.3506 65.4747 75.3506 63.7426 74.2818 62.6738Z" fill="#03A07A"/>
</g>
<defs>
<clipPath id="clip0_192_296">
<rect width="106" height="106" fill="white"/>
</clipPath>
</defs>
</svg>
