<svg width="106" height="106" viewBox="0 0 106 106" fill="none" xmlns="http://www.w3.org/2000/svg">
<g clip-path="url(#clip0_192_289)">
<path fill-rule="evenodd" clip-rule="evenodd" d="M33.9715 0L72.0285 0C83.8411 0 88.1247 1.22994 92.4432 3.53951C96.7617 5.84908 100.151 9.23828 102.46 13.5568C104.77 17.8753 106 22.1589 106 33.9715V72.0285C106 83.8411 104.77 88.1247 102.46 92.4432C100.151 96.7617 96.7617 100.151 92.4432 102.46C88.1247 104.77 83.8411 106 72.0285 106H33.9715C22.1589 106 17.8753 104.77 13.5568 102.46C9.23828 100.151 5.84908 96.7617 3.53951 92.4432C1.22994 88.1247 0 83.8411 0 72.0285L0 33.9715C0 22.1589 1.22994 17.8753 3.53951 13.5568C5.84908 9.23828 9.23828 5.84908 13.5568 3.53951C17.8753 1.22994 22.1589 0 33.9715 0Z" fill="#03A07A" fill-opacity="0.2"/>
<path d="M50.2181 42.1956L44.2547 32.2572V32.2572C43.756 31.4256 42.8574 30.9167 41.8876 30.9167H32.2995C31.1824 30.9167 30.5285 32.1735 31.1686 33.0888L40.7671 46.8012C43.3308 44.4056 46.5916 42.7615 50.2181 42.1956ZM73.7007 30.9167H64.1125C63.1429 30.9167 62.2441 31.4256 61.7454 32.2572L55.7821 42.1956C59.4086 42.7615 62.6693 44.4056 65.2331 46.8003L74.8316 33.0888C75.4717 32.1735 74.8178 30.9167 73.7007 30.9167ZM53.0001 44.7188C44.6153 44.7188 37.8177 51.5163 37.8177 59.9011C37.8177 68.2858 44.6153 75.0834 53.0001 75.0834C61.3849 75.0834 68.1824 68.2858 68.1824 59.9011C68.1824 51.5163 61.3849 44.7188 53.0001 44.7188ZM60.9812 58.2845L57.7092 61.4728L58.483 65.9774C58.621 66.7848 57.7704 67.4016 57.0467 67.0203L53.0001 64.894L48.9543 67.0203C48.2297 67.4042 47.38 66.784 47.518 65.9774L48.2918 61.4728L45.0199 58.2845C44.4316 57.7117 44.7568 56.7119 45.5676 56.5946L50.0904 55.9356L52.1116 51.8363C52.2936 51.4671 52.6455 51.2851 52.9984 51.2851C53.3529 51.2851 53.7074 51.4697 53.8895 51.8363L55.9106 55.9356L60.4334 56.5946C61.2443 56.7119 61.5695 57.7117 60.9812 58.2845Z" fill="#03A07A"/>
</g>
<defs>
<clipPath id="clip0_192_289">
<rect width="106" height="106" fill="white"/>
</clipPath>
</defs>
</svg>
