<svg width="25" height="25" viewBox="0 0 25 25" fill="none" xmlns="http://www.w3.org/2000/svg">
<path d="M20.6522 5.43486C20.6522 4.83431 20.1658 4.3479 19.5652 4.3479C18.9647 4.3479 18.4783 4.83431 18.4783 5.43486C18.4783 6.0354 18.9647 6.52181 19.5652 6.52181C20.1658 6.52181 20.6522 6.0354 20.6522 5.43486Z" fill="#4A4A4A"/>
<path fill-rule="evenodd" clip-rule="evenodd" d="M5.43481 12.5C5.43481 8.59786 8.59786 5.43481 12.5 5.43481C16.4022 5.43481 19.5652 8.59786 19.5652 12.5C19.5652 16.4022 16.4022 19.5652 12.5 19.5652C8.59786 19.5652 5.43481 16.4022 5.43481 12.5ZM7.60873 12.5C7.60873 15.1299 9.87014 17.3913 12.5 17.3913C15.1299 17.3913 17.3913 15.1299 17.3913 12.5C17.3913 9.87014 15.1299 7.60873 12.5 7.60873C9.87014 7.60873 7.60873 9.87014 7.60873 12.5Z" fill="#4A4A4A"/>
<path fill-rule="evenodd" clip-rule="evenodd" d="M5.43478 0H19.5652C22.5668 0 25 2.43315 25 5.43478V19.5652C25 22.5668 22.5668 25 19.5652 25H5.43478C2.43315 25 0 22.5668 0 19.5652V5.43478C0 2.43315 2.43315 0 5.43478 0ZM19.7891 22.8261C21.4663 22.8261 22.8261 21.4663 22.8261 19.7891V5.21087C22.8261 3.5337 21.4663 2.17391 19.7891 2.17391H5.21087C3.5337 2.17391 2.17391 3.5337 2.17391 5.21087V19.7891C2.17391 21.4663 3.5337 22.8261 5.21087 22.8261H19.7891Z" fill="#4A4A4A"/>
</svg>
