<svg width="117" height="30" viewBox="0 0 117 30" fill="none" xmlns="http://www.w3.org/2000/svg">
<path d="M0.76 29V0.999998H5.96V24.6H20.6V29H0.76ZM37.3175 29.4C35.1308 29.4 33.1175 29.04 31.2775 28.32C29.4375 27.6 27.8375 26.6 26.4775 25.32C25.1175 24.0133 24.0642 22.4933 23.3175 20.76C22.5708 19 22.1975 17.08 22.1975 15C22.1975 12.92 22.5708 11.0133 23.3175 9.28C24.0642 7.52 25.1175 6 26.4775 4.72C27.8375 3.41333 29.4375 2.4 31.2775 1.68C33.1175 0.959999 35.1175 0.599998 37.2775 0.599998C39.4642 0.599998 41.4642 0.959999 43.2775 1.68C45.1175 2.4 46.7175 3.41333 48.0775 4.72C49.4375 6 50.4908 7.52 51.2375 9.28C51.9842 11.0133 52.3575 12.92 52.3575 15C52.3575 17.08 51.9842 19 51.2375 20.76C50.4908 22.52 49.4375 24.04 48.0775 25.32C46.7175 26.6 45.1175 27.6 43.2775 28.32C41.4642 29.04 39.4775 29.4 37.3175 29.4ZM37.2775 24.84C38.6908 24.84 39.9975 24.6 41.1975 24.12C42.3975 23.64 43.4375 22.96 44.3175 22.08C45.1975 21.1733 45.8775 20.1333 46.3575 18.96C46.8642 17.76 47.1175 16.44 47.1175 15C47.1175 13.56 46.8642 12.2533 46.3575 11.08C45.8775 9.88 45.1975 8.84 44.3175 7.96C43.4375 7.05333 42.3975 6.36 41.1975 5.88C39.9975 5.4 38.6908 5.16 37.2775 5.16C35.8642 5.16 34.5575 5.4 33.3575 5.88C32.1842 6.36 31.1442 7.05333 30.2375 7.96C29.3575 8.84 28.6642 9.88 28.1575 11.08C27.6775 12.2533 27.4375 13.56 27.4375 15C27.4375 16.4133 27.6775 17.72 28.1575 18.92C28.6642 20.12 29.3575 21.1733 30.2375 22.08C31.1175 22.96 32.1575 23.64 33.3575 24.12C34.5575 24.6 35.8642 24.84 37.2775 24.84ZM70.9494 29.4C68.7627 29.4 66.7494 29.0533 64.9094 28.36C63.096 27.64 61.5094 26.64 60.1494 25.36C58.7894 24.0533 57.736 22.52 56.9894 20.76C56.2427 19 55.8694 17.08 55.8694 15C55.8694 12.92 56.2427 11 56.9894 9.24C57.736 7.48 58.7894 5.96 60.1494 4.68C61.536 3.37333 63.1494 2.37333 64.9894 1.68C66.8294 0.959999 68.8427 0.599998 71.0294 0.599998C73.4027 0.599998 75.536 0.986665 77.4294 1.76C79.3494 2.53333 80.9627 3.66667 82.2694 5.16L78.9894 8.36C77.896 7.26667 76.7094 6.46667 75.4294 5.96C74.176 5.42667 72.7894 5.16 71.2694 5.16C69.8027 5.16 68.4427 5.4 67.1894 5.88C65.936 6.36 64.856 7.04 63.9494 7.92C63.0427 8.8 62.336 9.84 61.8294 11.04C61.3494 12.24 61.1094 13.56 61.1094 15C61.1094 16.4133 61.3494 17.72 61.8294 18.92C62.336 20.12 63.0427 21.1733 63.9494 22.08C64.856 22.96 65.9227 23.64 67.1494 24.12C68.376 24.6 69.736 24.84 71.2294 24.84C72.616 24.84 73.9494 24.6267 75.2294 24.2C76.536 23.7467 77.776 23 78.9494 21.96L81.9094 25.84C80.4427 27.0133 78.736 27.9067 76.7894 28.52C74.8694 29.1067 72.9227 29.4 70.9494 29.4ZM76.9894 25.16V14.68H81.9094V25.84L76.9894 25.16ZM101.888 29.4C99.7011 29.4 97.6878 29.04 95.8478 28.32C94.0078 27.6 92.4078 26.6 91.0478 25.32C89.6878 24.0133 88.6345 22.4933 87.8878 20.76C87.1411 19 86.7678 17.08 86.7678 15C86.7678 12.92 87.1411 11.0133 87.8878 9.28C88.6345 7.52 89.6878 6 91.0478 4.72C92.4078 3.41333 94.0078 2.4 95.8478 1.68C97.6878 0.959999 99.6878 0.599998 101.848 0.599998C104.034 0.599998 106.034 0.959999 107.848 1.68C109.688 2.4 111.288 3.41333 112.648 4.72C114.008 6 115.061 7.52 115.808 9.28C116.554 11.0133 116.928 12.92 116.928 15C116.928 17.08 116.554 19 115.808 20.76C115.061 22.52 114.008 24.04 112.648 25.32C111.288 26.6 109.688 27.6 107.848 28.32C106.034 29.04 104.048 29.4 101.888 29.4ZM101.848 24.84C103.261 24.84 104.568 24.6 105.768 24.12C106.968 23.64 108.008 22.96 108.888 22.08C109.768 21.1733 110.448 20.1333 110.928 18.96C111.434 17.76 111.688 16.44 111.688 15C111.688 13.56 111.434 12.2533 110.928 11.08C110.448 9.88 109.768 8.84 108.888 7.96C108.008 7.05333 106.968 6.36 105.768 5.88C104.568 5.4 103.261 5.16 101.848 5.16C100.434 5.16 99.1278 5.4 97.9278 5.88C96.7545 6.36 95.7145 7.05333 94.8078 7.96C93.9278 8.84 93.2345 9.88 92.7278 11.08C92.2478 12.2533 92.0078 13.56 92.0078 15C92.0078 16.4133 92.2478 17.72 92.7278 18.92C93.2345 20.12 93.9278 21.1733 94.8078 22.08C95.6878 22.96 96.7278 23.64 97.9278 24.12C99.1278 24.6 100.434 24.84 101.848 24.84Z" fill="#03A07A"/>
</svg>
