<svg width="21" height="21" viewBox="0 0 21 21" fill="none" xmlns="http://www.w3.org/2000/svg">
<path d="M18.662 7.00002H16.1L15.554 3.73802C15.444 3.24448 15.2024 2.78994 14.8549 2.42266C14.5073 2.05538 14.0668 1.78908 13.58 1.65202C13.0908 1.49548 12.5816 1.41059 12.068 1.40002H8.93204C8.41851 1.41059 7.90923 1.49548 7.42004 1.65202C6.93331 1.78908 6.49278 2.05538 6.14522 2.42266C5.79766 2.78994 5.55605 3.24448 5.44604 3.73802L4.90004 7.00002H2.33804C2.22777 6.99936 2.11891 7.02475 2.02031 7.07413C1.92172 7.12351 1.83619 7.19548 1.77069 7.28418C1.70518 7.37288 1.66156 7.47581 1.64337 7.58456C1.62519 7.69332 1.63295 7.80484 1.66604 7.91002L4.29804 16.73C4.43203 17.1561 4.69839 17.5284 5.05842 17.7927C5.41844 18.0571 5.85338 18.1998 6.30004 18.2H14.7C15.1443 18.1968 15.5761 18.0527 15.9333 17.7886C16.2905 17.5245 16.5548 17.1538 16.688 16.73L19.32 7.91002C19.3528 7.80596 19.3607 7.69569 19.3433 7.588C19.3258 7.48031 19.2835 7.3782 19.2195 7.28979C19.1556 7.20139 19.0719 7.12915 18.9751 7.07884C18.8783 7.02853 18.7711 7.00154 18.662 7.00002ZM6.32804 7.00002L6.83204 3.96202C6.88729 3.71398 7.01545 3.48812 7.20007 3.31349C7.38468 3.13885 7.61731 3.02342 7.86804 2.98202C8.21244 2.87282 8.57084 2.81262 8.93204 2.80002H12.068C12.4348 2.81216 12.7942 2.87282 13.146 2.98202C13.3968 3.02342 13.6294 3.13885 13.814 3.31349C13.9986 3.48812 14.1268 3.71398 14.182 3.96202L14.672 7.00002H6.27204H6.32804Z" fill="black"/>
</svg>
