<svg width="20" height="25" viewBox="0 0 20 25" fill="none" xmlns="http://www.w3.org/2000/svg">
<path d="M10.505 0C3.62504 0 0.150635 4.86221 0.150635 8.91732C0.150635 11.378 1.09552 13.5532 3.11323 14.3701C3.44788 14.5079 3.74315 14.3799 3.84158 14.0157C3.91048 13.7697 4.2156 13.1299 4.28449 12.874C4.38292 12.5197 4.34355 12.3917 4.0778 12.0768C3.49709 11.3976 3.13292 10.689 3.13292 9.44882C3.13292 5.31496 5.71166 2.37205 10.1014 2.37205C13.9892 2.37205 16.125 4.78346 16.125 7.91339C16.125 12.0276 14.2747 15.374 11.5286 15.374C10.0128 15.374 8.88095 14.2717 9.24512 12.7559C9.67819 10.9449 10.5247 8.99606 10.5247 7.68701C10.5247 6.51575 9.89473 5.67913 8.57583 5.67913C7.03056 5.67913 5.78056 7.12598 5.78056 9.24213C5.78056 10.5906 6.22347 11.2598 6.22347 11.2598C6.22347 11.2598 4.65851 18.1201 4.37308 19.2815C3.82189 21.5945 4.29434 24.4193 4.33371 24.7047C4.35339 24.872 4.57977 24.9114 4.67819 24.7835C4.81599 24.6063 6.66638 22.3524 7.2963 20.1083C7.47347 19.4783 8.31993 16.1909 8.31993 16.1909C8.82189 17.1358 10.2983 17.7461 11.8534 17.7461C16.5089 17.7461 19.6684 13.7795 19.6684 8.18898C19.6782 3.94685 16.0365 0 10.505 0V0Z" fill="#4A4A4A"/>
</svg>
