<svg width="25" height="20" viewBox="0 0 25 20" fill="none" xmlns="http://www.w3.org/2000/svg">
<path d="M17.4057 0.000335867C14.5628 0.0509222 12.3382 2.42137 12.3382 5.18355V5.8533C7.28141 4.9649 4.75301 3.63252 2.00944 0.836474C0.368454 3.91973 2.16179 6.53266 4.16126 7.94365C2.82326 7.94365 1.7254 7.75719 0.862514 7.0264C0.797528 6.97122 0.695102 7.02807 0.718341 7.10876C1.4689 9.68699 3.94135 11.5629 5.88272 12.1243C4.13028 12.1243 2.94204 12.3781 1.71464 11.6114C1.64363 11.567 1.55239 11.6339 1.58079 11.7113C2.50995 14.2469 4.40657 15.0508 7.17382 15.0508C5.79794 16.0341 3.96717 17.0672 0.463995 17.1382C0.321975 17.1412 0.253117 17.3134 0.364151 17.3999C1.68666 18.4359 4.85716 19.2315 9.32564 19.2315C16.6999 19.2315 22.667 12.8739 22.667 5.01716V4.59909C23.8143 4.18228 24.4874 3.18477 24.8153 2.18307C24.8338 2.12747 24.7766 2.07563 24.7198 2.09444L22.2977 2.90633C22.2426 2.92473 22.2047 2.85658 22.2495 2.82105C23.2634 2.00999 24.0678 1.01206 24.3854 0.0601197C24.3979 0.0233297 24.357 -0.0101159 24.3204 0.00493462C23.158 0.478607 22.0507 0.92385 21.1757 1.18765C21.0299 1.23197 20.8753 1.21357 20.7419 1.14083C20.1678 0.82853 18.5053 -0.0193134 17.4057 0.000335867Z" fill="#4A4A4A"/>
</svg>
